<?xml version="1.0" encoding="UTF-8"?>
<svg width="1900px" height="580px" viewBox="0 0 1900 580" version="1.1" xmlns="http://www.w3.org/2000/svg" xmlns:xlink="http://www.w3.org/1999/xlink">
  <g stroke="none" stroke-width="1" fill="none">
    <path id="hero-building" fill="#eee" fill-rule="nonzero" d="M1205.67335,0 L1205.67335,2.174607 L1216.89023,2.174607 L1216.89023,54.486438 L1222.27897,54.486438 L1222.27897,90.983189 L1228.88483,90.983189 L1228.88483,175.097638 L1242.09789,175.097638 L1242.09789,295.283078 L1250.66488,295.283078 L1250.66488,219.228419 L1257.76406,219.228419 L1257.76406,90.286614 L1260.71991,90.286614 L1260.71991,85.596523 L1263.15415,85.596523 L1263.15415,82.466652 L1268.19649,82.466652 L1268.19649,74.991608 L1279.84334,74.991608 L1279.84334,57.089499 L1280.88658,57.089499 L1280.88658,74.991608 L1290.45233,74.991608 L1290.45233,82.466652 L1317.22486,82.466652 L1317.22486,80.988619 L1322.70256,80.988619 L1322.70256,82.466652 L1332.70097,82.466652 L1332.70097,59.962028 L1333.74422,59.962028 L1333.74422,82.466652 L1344.52305,82.466652 L1344.52305,85.596523 L1346.26178,85.596523 L1346.26178,90.286614 L1348.86854,90.286614 L1348.86854,276.285581 L1354.16024,276.285581 L1354.16024,256.188655 L1368.43676,256.188655 L1368.43676,188.676132 L1373.09766,188.676132 L1373.09766,158.579247 L1377.52537,158.579247 L1377.52537,154.607288 L1381.95713,154.607288 L1381.95713,151.823683 L1385.64892,151.823683 L1385.64892,149.038731 L1389.6305,149.038731 L1389.6305,132.743999 L1390.76404,132.743999 L1390.76404,149.038731 L1394.73753,149.038731 L1394.73753,151.823683 L1398.43471,151.823683 L1398.43471,154.607288 L1402.86512,154.607288 L1402.86512,158.579247 L1407.29284,158.579247 L1407.29284,188.676132 L1411.95239,188.676132 L1411.95239,306.145335 L1419.48288,306.145335 L1419.48288,115.126178 L1426.0456,115.126178 L1426.0456,75.271855 L1430.63911,75.271855 L1430.63911,37.183895 L1444.99785,37.183895 L1444.99785,10.00939 L1447.2919,10.00939 L1447.2919,37.183895 L1460.12217,37.183895 L1476.01747,45.99011 L1476.01747,58.990596 L1480.61233,58.990596 L1494.10709,72.57448 L1494.10709,75.271855 L1497.65196,75.271855 L1497.65196,105.523684 L1510.37844,105.523684 L1510.37844,111.12862 L1504.87783,116.588042 L1504.87783,220.162125 L1514.07023,220.162125 L1527.56365,233.750051 L1527.56365,255.55271 L1534.28677,255.55271 L1534.28677,190.671543 L1538.38695,190.671543 L1538.38695,178.992798 L1539.83321,178.992798 L1539.83321,190.671543 L1541.29563,190.671543 L1541.29563,172.10789 L1542.74323,172.10789 L1542.74323,190.671543 L1548.8369,190.671543 L1558.50779,205.505759 L1558.50779,255.55271 L1566.55316,255.55271 L1566.55316,294.994747 L1575.30885,294.994747 L1575.30885,228.869985 L1582.2045,228.869985 L1582.2045,172.217024 L1587.80486,172.217024 L1587.80486,121.499097 L1607.90682,121.499097 L1607.90682,172.217024 L1613.50448,172.217024 L1613.50448,228.869985 L1620.40013,228.869985 L1620.40013,276.150847 L1629.15987,276.150847 L1629.15987,214.999118 L1638.83075,214.999118 L1638.83075,197.809751 L1649.08257,197.809751 L1649.08257,189.869876 L1666.27855,189.869876 L1666.27855,177.970167 L1676.1988,177.970167 L1676.1988,189.869876 L1735.72429,189.869876 L1735.72429,197.809751 L1744.98543,197.809751 L1744.98543,203.098062 L1755.89635,214.999118 L1761.68406,214.999118 L1761.68406,311.52257 L1782.60418,311.52257 L1782.60418,291.522652 L1801.45264,291.522652 L1801.45264,243.921122 L1804.09848,243.921122 L1804.09848,291.522652 L1815.0121,291.522652 L1815.0121,311.52257 L1826.75195,311.52257 L1826.75195,337.638065 L1846.09642,337.638065 L1861.47415,328.711936 L1861.47415,358.959723 L1868.37788,358.959723 L1868.37788,352.638003 L1894.50343,352.638003 L1894.50343,358.959723 L1900,358.959723 L1900,579.885204 L0,579.885204 L0,333.558319 L14.5191371,333.558319 L11.9797708,319.304807 L16.2578752,319.304807 L16.2578752,316.736776 L18.2554023,316.736776 L18.2554023,313.030243 L36.5108045,313.030243 L36.5108045,249.73759 L45.6304185,249.73759 L45.6304185,282.239478 L105.529272,282.239478 L105.529272,185.30374 L110.380217,185.30374 L110.380217,177.319402 L116.085704,177.319402 L116.085704,171.04888 L121.7858,171.04888 L121.7858,164.77297 L126.921142,164.77297 L126.921142,159.076415 L129.773212,159.076415 L129.773212,136.267293 L132.908332,136.267293 L132.908332,159.076415 L135.760402,159.076415 L135.760402,164.77297 L140.891701,164.77297 L140.891701,171.04888 L146.59584,171.04888 L146.59584,177.319402 L152.301327,177.319402 L152.301327,185.30374 L157.15362,185.30374 L157.15362,277.867359 L189.09653,289.862729 L189.09653,277.678731 L195.653864,277.678731 L195.653864,315.31129 L209.91556,315.31129 L209.91556,176.183594 L261.539908,176.183594 L261.539908,290.222468 L278.366579,290.222468 L278.366579,202.122587 L282.35759,203.801373 L282.35759,159.477923 L284.925261,157.257506 L284.925261,123.436572 L289.489112,132.351923 L289.489112,153.311147 L292.056783,151.09073 L292.056783,207.860909 L296.050489,209.534306 L296.050489,260.571553 L341.397857,260.571553 L341.397857,244.892555 L349.671016,244.892555 L349.671016,238.049414 C349.671016,233.500793 353.389759,229.780787 357.940131,229.780787 L357.940131,229.780787 L377.335822,229.780787 C381.884846,229.780787 385.60898,233.500793 385.60898,238.049414 L385.60898,238.049414 L385.60898,244.892555 L393.876748,244.892555 L393.876748,281.383917 L409.848877,281.383917 L409.848877,251.733001 L416.980399,251.733001 L416.980399,233.771609 L424.394971,233.771609 L424.394971,215.525928 L427.531439,215.525928 L427.531439,233.771609 L455.197593,233.771609 L455.197593,251.733001 L462.327767,251.733001 L462.327767,298.491095 L482.007856,298.491095 L482.007856,126.861511 L491.991447,127.428741 L521.651085,108.044558 L574.131323,108.044558 L574.131323,228.640937 L598.811969,228.640937 L595.520497,133.983552 L660.549302,138.54834 L660.549302,250.594498 L664.25861,250.594498 L664.25861,238.619339 L673.666666,238.619339 L673.666666,250.594498 L686.790769,250.594498 L686.790769,198.987327 L702.76155,198.987327 L702.76155,184.16389 L714.167133,184.16389 L714.167133,178.460599 L726.719744,178.460599 L726.719744,164.778359 L732.423883,164.778359 L732.423883,178.460599 L744.975146,178.460599 L744.975146,184.16389 L760.945927,184.16389 L760.945927,232.060487 L776.918057,232.060487 L776.918057,177.319402 L792.890186,182.179258 L792.890186,67.270002 L798.020137,67.270002 L798.020137,106.045105 L813.42347,118.018917 L813.42347,188.429569 L829.395599,193.284036 L829.395599,232.060487 L845.36638,232.060487 L845.36638,72.032849 L894.4271,72.032849 L894.4271,58.915145 L903.549409,58.915145 L903.549409,257.152003 L920.661827,257.152003 L920.661827,286.801572 L924.193218,286.801572 L924.193218,142.172685 L919.958245,129.659937 L924.193218,129.659937 L924.193218,100.278489 L951.813544,100.278489 L951.813544,314.779091 L957.486683,314.779091 L957.486683,267.504965 L963.58844,267.504965 L963.58844,244.152865 L965.882496,244.152865 L965.882496,267.504965 L991.336814,267.504965 L991.336814,74.925589 L1060.46446,153.622382 L1069.22554,153.622382 L1069.22554,295.283078 L1080.26316,295.283078 L1080.26316,211.765501 L1097.68558,211.765501 L1097.68558,202.576641 L1112.61851,202.576641 L1112.61851,295.283078 L1118.30783,295.283078 L1118.30783,183.790677 L1136.38801,183.790677 L1136.38801,90.983189 L1142.99791,90.983189 L1142.99791,32.761924 L1160.38394,32.761924 L1160.38394,11.037411 L1183.50781,11.037411 L1183.50781,2.174607 L1188.28732,2.174607 L1188.28732,0 L1205.67335,0 Z M1846.30399,362.923598 L1842.68634,362.923598 L1842.68634,365.839242 L1846.30399,365.839242 L1846.30399,362.923598 Z M1846.30399,357.353694 L1842.68634,357.353694 L1842.68634,360.266643 L1846.30399,360.266643 L1846.30399,357.353694 Z M1855.65679,357.353694 L1852.04183,357.353694 L1852.04183,360.266643 L1855.65679,360.266643 L1855.65679,357.353694 Z M1855.65679,351.779747 L1852.04183,351.779747 L1852.04183,354.692697 L1855.65679,354.692697 L1855.65679,351.779747 Z M1795.34818,345.736927 L1791.63079,345.736927 L1791.63079,352.523479 L1795.34818,352.523479 L1795.34818,345.736927 Z M1807.44657,345.736927 L1803.73456,345.736927 L1803.73456,352.523479 L1807.44657,352.523479 L1807.44657,345.736927 Z M1846.30399,346.205801 L1842.68634,346.205801 L1842.68634,349.121445 L1846.30399,349.121445 L1846.30399,346.205801 Z M957.430073,336.983257 L953.716721,336.983257 L953.716721,343.76981 L957.430073,343.76981 L957.430073,336.983257 Z M1665.44153,335.499836 L1661.72549,335.499836 L1661.72549,342.286388 L1665.44153,342.286388 L1665.44153,335.499836 Z M1807.44657,330.928311 L1803.73456,330.928311 L1803.73456,337.71621 L1807.44657,337.71621 L1807.44657,330.928311 Z M54.324109,332.772819 L49.018936,332.772819 L49.018936,337.045235 L54.324109,337.045235 L54.324109,332.772819 Z M70.2315409,332.772819 L64.9290636,332.772819 L64.9290636,337.045235 L70.2315409,337.045235 L70.2315409,332.772819 Z M86.1848,332.772819 L80.879627,332.772819 L80.879627,337.045235 L86.1848,337.045235 L86.1848,332.772819 Z M102.807945,332.772819 L97.5054677,332.772819 L97.5054677,337.045235 L102.807945,337.045235 L102.807945,332.772819 Z M969.528455,322.174641 L965.817799,322.174641 L965.817799,328.961194 L969.528455,328.961194 L969.528455,322.174641 Z M86.1848,324.601201 L80.879627,324.601201 L80.879627,328.874964 L86.1848,328.874964 L86.1848,324.601201 Z M54.324109,324.601201 L49.018936,324.601201 L49.018936,328.874964 L54.324109,328.874964 L54.324109,324.601201 Z M426.393846,321.770439 L422.680494,321.770439 L422.680494,328.558339 L426.393846,328.558339 L426.393846,321.770439 Z M438.493576,321.770439 L434.780224,321.770439 L434.780224,328.558339 L438.493576,328.558339 L438.493576,321.770439 Z M451.20793,321.770439 L447.491883,321.770439 L447.491883,328.558339 L451.20793,328.558339 L451.20793,321.770439 Z M1678.1505,320.693914 L1674.43445,320.693914 L1674.43445,327.480467 L1678.1505,327.480467 L1678.1505,320.693914 Z M1653.33641,320.693914 L1649.62441,320.693914 L1649.62441,327.480467 L1653.33641,327.480467 L1653.33641,320.693914 Z M581.390891,316.533328 L577.8285,316.533328 L577.8285,323.04637 L581.390891,323.04637 L581.390891,316.533328 Z M593.587667,316.533328 L590.023928,316.533328 L590.023928,323.04637 L593.587667,323.04637 L593.587667,316.533328 Z M1795.34818,316.122389 L1791.63079,316.122389 L1791.63079,322.908942 L1795.34818,322.908942 L1795.34818,316.122389 Z M102.807945,316.432277 L97.5054677,316.432277 L97.5054677,320.704693 L102.807945,320.704693 L102.807945,316.432277 Z M70.2315409,316.432277 L64.9290636,316.432277 L64.9290636,320.704693 L70.2315409,320.704693 L70.2315409,316.432277 Z M274.860798,312.630083 L272.059947,312.630083 L272.059947,318.582632 L274.860798,318.582632 L274.860798,312.630083 Z M266.455549,312.630083 L263.653351,312.630083 L263.653351,318.582632 L266.455549,318.582632 L266.455549,312.630083 Z M982.240113,307.366025 L978.529457,307.366025 L978.529457,314.152578 L982.240113,314.152578 L982.240113,307.366025 Z M438.493576,306.961823 L434.780224,306.961823 L434.780224,313.748376 L438.493576,313.748376 L438.493576,306.961823 Z M1653.33641,305.885298 L1649.62441,305.885298 L1649.62441,312.671851 L1653.33641,312.671851 L1653.33641,305.885298 Z M1665.44153,305.885298 L1661.72549,305.885298 L1661.72549,312.671851 L1665.44153,312.671851 L1665.44153,305.885298 Z M1678.1505,305.885298 L1674.43445,305.885298 L1674.43445,312.671851 L1678.1505,312.671851 L1678.1505,305.885298 Z M54.324109,308.260659 L49.018936,308.260659 L49.018936,312.535769 L54.324109,312.535769 L54.324109,308.260659 Z M70.2315409,308.260659 L64.9290636,308.260659 L64.9290636,312.535769 L70.2315409,312.535769 L70.2315409,308.260659 Z M102.807945,308.260659 L97.5054677,308.260659 L97.5054677,312.535769 L102.807945,312.535769 L102.807945,308.260659 Z M1613.47483,308.260659 L1608.91502,308.260659 L1608.91502,311.936203 L1613.47483,311.936203 L1613.47483,308.260659 Z M1586.0742,308.260659 L1581.5117,308.260659 L1581.5117,311.936203 L1586.0742,311.936203 L1586.0742,308.260659 Z M1339.11813,307.271711 L1333.81565,307.271711 L1333.81565,311.544127 L1339.11813,311.544127 L1339.11813,307.271711 Z M581.390891,302.322931 L577.8285,302.322931 L577.8285,308.837321 L581.390891,308.837321 L581.390891,302.322931 Z M593.587667,302.322931 L590.023928,302.322931 L590.023928,308.837321 L593.587667,308.837321 L593.587667,302.322931 Z M1807.44657,301.313773 L1803.73456,301.313773 L1803.73456,308.100326 L1807.44657,308.100326 L1807.44657,301.313773 Z M1795.34818,301.313773 L1791.63079,301.313773 L1791.63079,308.100326 L1795.34818,308.100326 L1795.34818,301.313773 Z M868.854171,300.68726 L865.140819,300.68726 L865.140819,307.47516 L868.854171,307.47516 L868.854171,300.68726 Z M266.455549,301.251795 L263.653351,301.251795 L263.653351,307.204344 L266.455549,307.204344 L266.455549,301.251795 Z M1599.75363,301.232933 L1595.19517,301.232933 L1595.19517,304.908477 L1599.75363,304.908477 L1599.75363,301.232933 Z M54.324109,300.090388 L49.018936,300.090388 L49.018936,304.364151 L54.324109,304.364151 L54.324109,300.090388 Z M86.1848,300.090388 L80.879627,300.090388 L80.879627,304.364151 L86.1848,304.364151 L86.1848,300.090388 Z M1339.11813,299.100093 L1333.81565,299.100093 L1333.81565,303.373856 L1339.11813,303.373856 L1339.11813,299.100093 Z M1509.11954,295.305983 L1505.5585,295.305983 L1505.5585,301.817678 L1509.11954,301.817678 L1509.11954,295.305983 Z M1521.31362,295.305983 L1517.75123,295.305983 L1517.75123,301.817678 L1521.31362,301.817678 L1521.31362,295.305983 Z M982.240113,292.560104 L978.529457,292.560104 L978.529457,299.346656 L982.240113,299.346656 L982.240113,292.560104 Z M969.528455,292.560104 L965.817799,292.560104 L965.817799,299.346656 L969.528455,299.346656 L969.528455,292.560104 Z M1018.6997,292.84035 L1015.18179,292.84035 L1015.18179,299.272553 L1018.6997,299.272553 L1018.6997,292.84035 Z M426.393846,292.155902 L422.680494,292.155902 L422.680494,298.942454 L426.393846,298.942454 L426.393846,292.155902 Z M451.20793,292.155902 L447.491883,292.155902 L447.491883,298.942454 L451.20793,298.942454 L451.20793,292.155902 Z M1306.54442,294.616145 L1301.24195,294.616145 L1301.24195,298.891255 L1306.54442,298.891255 L1306.54442,294.616145 Z M1599.75363,294.205206 L1595.19517,294.205206 L1595.19517,297.88075 L1599.75363,297.88075 L1599.75363,294.205206 Z M1678.1505,291.075335 L1674.43445,291.075335 L1674.43445,297.863235 L1678.1505,297.863235 L1678.1505,291.075335 Z M1665.44153,291.075335 L1661.72549,291.075335 L1661.72549,297.863235 L1665.44153,297.863235 L1665.44153,291.075335 Z M1172.9352,290.237289 L1169.72056,290.237289 L1169.72056,296.11304 L1172.9352,296.11304 L1172.9352,290.237289 Z M1339.11813,290.928475 L1333.81565,290.928475 L1333.81565,295.203585 L1339.11813,295.203585 L1339.11813,290.928475 Z M704.764469,290.817993 L699.596777,290.817993 L699.596777,294.983969 L704.764469,294.983969 L704.764469,290.817993 Z M735.811053,290.817993 L730.643361,290.817993 L730.643361,294.983969 L735.811053,294.983969 L735.811053,290.817993 Z M593.587667,288.116576 L590.023928,288.116576 L590.023928,294.629618 L593.587667,294.629618 L593.587667,288.116576 Z M139.267531,287.839024 L136.396591,287.839024 L136.396591,293.088261 L139.267531,293.088261 L139.267531,287.839024 Z M881.565829,285.879991 L877.852478,285.879991 L877.852478,292.666544 L881.565829,292.666544 L881.565829,285.879991 Z M638.459241,285.450189 L634.74589,285.450189 L634.74589,292.236742 L638.459241,292.236742 L638.459241,285.450189 Z M1586.0742,287.178827 L1581.5117,287.178827 L1581.5117,290.854371 L1586.0742,290.854371 L1586.0742,287.178827 Z M1613.47483,287.178827 L1608.91502,287.178827 L1608.91502,290.854371 L1613.47483,290.854371 L1613.47483,287.178827 Z M1306.54442,286.448569 L1301.24195,286.448569 L1301.24195,290.719637 L1306.54442,290.719637 L1306.54442,286.448569 Z M1509.11954,281.096933 L1505.5585,281.096933 L1505.5585,287.609976 L1509.11954,287.609976 L1509.11954,281.096933 Z M1521.31362,281.096933 L1517.75123,281.096933 L1517.75123,287.609976 L1521.31362,287.609976 L1521.31362,281.096933 Z M752.008274,282.85656 L746.841931,282.85656 L746.841931,287.022535 L752.008274,287.022535 L752.008274,282.85656 Z M720.266195,282.85656 L715.098504,282.85656 L715.098504,287.022535 L720.266195,287.022535 L720.266195,282.85656 Z M316.4099,283.293098 L310.004874,283.293098 L310.004874,286.794835 L316.4099,286.794835 L316.4099,283.293098 Z M371.087148,283.293098 L364.680774,283.293098 L364.680774,286.794835 L371.087148,286.794835 L371.087148,283.293098 Z M357.111198,283.293098 L350.706172,283.293098 L350.706172,286.794835 L357.111198,286.794835 L357.111198,283.293098 Z M330.384502,283.293098 L323.979476,283.293098 L323.979476,286.794835 L330.384502,286.794835 L330.384502,283.293098 Z M1007.23077,278.80376 L1003.71285,278.80376 L1003.71285,285.23731 L1007.23077,285.23731 L1007.23077,278.80376 Z M982.240113,277.751488 L978.529457,277.751488 L978.529457,284.53804 L982.240113,284.53804 L982.240113,277.751488 Z M969.528455,277.751488 L965.817799,277.751488 L965.817799,284.53804 L969.528455,284.53804 L969.528455,277.751488 Z M1162.46234,278.541029 L1159.2477,278.541029 L1159.2477,284.415432 L1162.46234,284.415432 L1162.46234,278.541029 Z M438.493576,277.347285 L434.780224,277.347285 L434.780224,284.135185 L438.493576,284.135185 L438.493576,277.347285 Z M451.20793,277.347285 L447.491883,277.347285 L447.491883,284.135185 L451.20793,284.135185 L451.20793,277.347285 Z M426.393846,277.347285 L422.680494,277.347285 L422.680494,284.135185 L426.393846,284.135185 L426.393846,277.347285 Z M1586.0742,280.1511 L1581.5117,280.1511 L1581.5117,283.826645 L1586.0742,283.826645 L1586.0742,280.1511 Z M1599.75363,280.1511 L1595.19517,280.1511 L1595.19517,283.826645 L1599.75363,283.826645 L1599.75363,280.1511 Z M1653.33641,276.268066 L1649.62441,276.268066 L1649.62441,283.054619 L1653.33641,283.054619 L1653.33641,276.268066 Z M1665.44153,276.268066 L1661.72549,276.268066 L1661.72549,283.054619 L1665.44153,283.054619 L1665.44153,276.268066 Z M1678.1505,276.268066 L1674.43445,276.268066 L1674.43445,283.054619 L1678.1505,283.054619 L1678.1505,276.268066 Z M1322.49499,278.27695 L1317.19386,278.27695 L1317.19386,282.550713 L1322.49499,282.550713 L1322.49499,278.27695 Z M120.084802,276.390674 L117.216558,276.390674 L117.216558,281.639911 L120.084802,281.639911 L120.084802,276.390674 Z M139.267531,276.390674 L136.396591,276.390674 L136.396591,281.639911 L139.267531,281.639911 L139.267531,276.390674 Z M1561.33695,277.758224 L1559.3866,277.758224 L1559.3866,281.327328 L1561.33695,281.327328 L1561.33695,277.758224 Z M593.587667,274.366969 L590.023928,274.366969 L590.023928,280.878664 L593.587667,280.878664 L593.587667,274.366969 Z M581.390891,274.366969 L577.8285,274.366969 L577.8285,280.878664 L581.390891,280.878664 L581.390891,274.366969 Z M284.016804,275.951441 L281.939754,275.951441 L281.939754,279.741509 L284.016804,279.741509 L284.016804,275.951441 Z M720.266195,274.893779 L715.098504,274.893779 L715.098504,279.059755 L720.266195,279.059755 L720.266195,274.893779 Z M752.008274,274.893779 L746.841931,274.893779 L746.841931,279.059755 L752.008274,279.059755 L752.008274,274.893779 Z M868.854171,271.071375 L865.140819,271.071375 L865.140819,277.857927 L868.854171,277.857927 L868.854171,271.071375 Z M893.664211,271.071375 L889.953556,271.071375 L889.953556,277.857927 L893.664211,277.857927 L893.664211,271.071375 Z M626.358163,270.642921 L622.647507,270.642921 L622.647507,277.429473 L626.358163,277.429473 L626.358163,270.642921 Z M651.169551,270.642921 L647.457548,270.642921 L647.457548,277.429473 L651.169551,277.429473 L651.169551,270.642921 Z M357.111198,271.882474 L350.706172,271.882474 L350.706172,275.385558 L357.111198,275.385558 L357.111198,271.882474 Z M343.139291,271.882474 L336.73157,271.882474 L336.73157,275.385558 L343.139291,275.385558 L343.139291,271.882474 Z M1306.54442,270.108027 L1301.24195,270.108027 L1301.24195,274.380442 L1306.54442,274.380442 L1306.54442,270.108027 Z M1322.49499,270.108027 L1317.19386,270.108027 L1317.19386,274.380442 L1322.49499,274.380442 L1322.49499,270.108027 Z M1561.33695,269.971945 L1559.3866,269.971945 L1559.3866,273.541049 L1561.33695,273.541049 L1561.33695,269.971945 Z M1521.31362,266.890578 L1517.75123,266.890578 L1517.75123,273.400926 L1521.31362,273.400926 L1521.31362,266.890578 Z M290.774969,267.67473 L288.70331,267.67473 L288.70331,271.467493 L290.774969,271.467493 L290.774969,267.67473 Z M284.016804,267.67473 L281.939754,267.67473 L281.939754,271.467493 L284.016804,271.467493 L284.016804,267.67473 Z M1030.74551,264.769865 L1027.2276,264.769865 L1027.2276,271.203414 L1030.74551,271.203414 L1030.74551,264.769865 Z M1007.23077,264.769865 L1003.71285,264.769865 L1003.71285,271.203414 L1007.23077,271.203414 L1007.23077,264.769865 Z M1018.6997,264.769865 L1015.18179,264.769865 L1015.18179,271.203414 L1018.6997,271.203414 L1018.6997,264.769865 Z M704.764469,266.930998 L699.596777,266.930998 L699.596777,271.096974 L704.764469,271.096974 L704.764469,266.930998 Z M735.811053,266.930998 L730.643361,266.930998 L730.643361,271.096974 L735.811053,271.096974 L735.811053,266.930998 Z M120.084802,264.942324 L117.216558,264.942324 L117.216558,270.188867 L120.084802,270.188867 L120.084802,264.942324 Z M139.267531,264.942324 L136.396591,264.942324 L136.396591,270.188867 L139.267531,270.188867 L139.267531,264.942324 Z M129.441639,264.942324 L126.569351,264.942324 L126.569351,270.188867 L129.441639,270.188867 L129.441639,264.942324 Z M1599.75363,266.010765 L1595.19517,266.010765 L1595.19517,269.686309 L1599.75363,269.686309 L1599.75363,266.010765 Z M1613.47483,266.010765 L1608.91502,266.010765 L1608.91502,269.686309 L1613.47483,269.686309 L1613.47483,266.010765 Z M1442.81566,262.59391 L1439.10231,262.59391 L1439.10231,269.380463 L1442.81566,269.380463 L1442.81566,262.59391 Z M438.493576,262.540017 L434.780224,262.540017 L434.780224,269.326569 L438.493576,269.326569 L438.493576,262.540017 Z M451.20793,262.540017 L447.491883,262.540017 L447.491883,269.326569 L451.20793,269.326569 L451.20793,262.540017 Z M1091.8197,262.312316 L1089.01616,262.312316 L1089.01616,268.264865 L1091.8197,268.264865 L1091.8197,262.312316 Z M1678.1505,261.462145 L1674.43445,261.462145 L1674.43445,268.248697 L1678.1505,268.248697 L1678.1505,261.462145 Z M1653.33641,261.462145 L1649.62441,261.462145 L1649.62441,268.248697 L1653.33641,268.248697 L1653.33641,261.462145 Z M1729.40014,260.983839 L1725.68948,260.983839 L1725.68948,267.770391 L1729.40014,267.770391 L1729.40014,260.983839 Z M548.481566,260.520354 L544.769562,260.520354 L544.769562,267.306906 L548.481566,267.306906 L548.481566,260.520354 Z M812.178048,260.067647 L808.466044,260.067647 L808.466044,266.8542 L812.178048,266.8542 L812.178048,260.067647 Z M593.587667,260.157919 L590.023928,260.157919 L590.023928,266.670962 L593.587667,266.670962 L593.587667,260.157919 Z M1561.33695,262.188361 L1559.3866,262.188361 L1559.3866,265.756118 L1561.33695,265.756118 L1561.33695,262.188361 Z M371.087148,259.896535 L364.680774,259.896535 L364.680774,263.398272 L371.087148,263.398272 L371.087148,259.896535 Z M357.111198,259.896535 L350.706172,259.896535 L350.706172,263.398272 L357.111198,263.398272 L357.111198,259.896535 Z M385.059054,259.896535 L378.65268,259.896535 L378.65268,263.398272 L385.059054,263.398272 L385.059054,259.896535 Z M290.774969,259.399367 L288.70331,259.399367 L288.70331,263.192129 L290.774969,263.192129 L290.774969,259.399367 Z M704.764469,258.97226 L699.596777,258.97226 L699.596777,263.135541 L704.764469,263.135541 L704.764469,258.97226 Z M720.266195,258.97226 L715.098504,258.97226 L715.098504,263.135541 L720.266195,263.135541 L720.266195,258.97226 Z M752.008274,258.97226 L746.841931,258.97226 L746.841931,263.135541 L752.008274,263.135541 L752.008274,258.97226 Z M893.664211,256.262759 L889.953556,256.262759 L889.953556,263.050659 L893.664211,263.050659 L893.664211,256.262759 Z M868.854171,256.262759 L865.140819,256.262759 L865.140819,263.050659 L868.854171,263.050659 L868.854171,256.262759 Z M881.565829,256.262759 L877.852478,256.262759 L877.852478,263.050659 L881.565829,263.050659 L881.565829,256.262759 Z M1586.0742,258.985733 L1581.5117,258.985733 L1581.5117,262.661277 L1586.0742,262.661277 L1586.0742,258.985733 Z M1613.47483,258.985733 L1608.91502,258.985733 L1608.91502,262.661277 L1613.47483,262.661277 L1613.47483,258.985733 Z M638.459241,255.834305 L634.74589,255.834305 L634.74589,262.622204 L638.459241,262.622204 L638.459241,255.834305 Z M651.169551,255.834305 L647.457548,255.834305 L647.457548,262.622204 L651.169551,262.622204 L651.169551,255.834305 Z M626.358163,255.834305 L622.647507,255.834305 L622.647507,262.622204 L626.358163,262.622204 L626.358163,255.834305 Z M1521.31362,253.140971 L1517.75123,253.140971 L1517.75123,259.651319 L1521.31362,259.651319 L1521.31362,253.140971 Z M1509.11954,253.140971 L1505.5585,253.140971 L1505.5585,259.651319 L1509.11954,259.651319 L1509.11954,253.140971 Z M129.441639,253.493975 L126.569351,253.493975 L126.569351,258.73917 L129.441639,258.73917 L129.441639,253.493975 Z M1192.8606,252.281368 L1189.64596,252.281368 L1189.64596,258.157119 L1192.8606,258.157119 L1192.8606,252.281368 Z M1322.49499,253.766137 L1317.19386,253.766137 L1317.19386,258.0399 L1322.49499,258.0399 L1322.49499,253.766137 Z M1030.74551,251.07011 L1027.2276,251.07011 L1027.2276,257.502312 L1030.74551,257.502312 L1030.74551,251.07011 Z M284.016804,251.848872 L281.939754,251.848872 L281.939754,255.641635 L284.016804,255.641635 L284.016804,251.848872 Z M1599.75363,251.958007 L1595.19517,251.958007 L1595.19517,255.633551 L1599.75363,255.633551 L1599.75363,251.958007 Z M1214.12038,249.31722 L1210.90844,249.31722 L1210.90844,255.188929 L1214.12038,255.188929 L1214.12038,249.31722 Z M1431.26451,247.785294 L1427.55116,247.785294 L1427.55116,254.571847 L1431.26451,254.571847 L1431.26451,247.785294 Z M1455.46667,247.785294 L1451.75466,247.785294 L1451.75466,254.571847 L1455.46667,254.571847 L1455.46667,247.785294 Z M1408.00451,250.512311 L1406.11077,250.512311 L1406.11077,254.535469 L1408.00451,254.535469 L1408.00451,250.512311 Z M1389.91355,250.676686 L1387.89176,250.676686 L1387.89176,254.369746 L1389.91355,254.369746 L1389.91355,250.676686 Z M1665.44153,246.653528 L1661.72549,246.653528 L1661.72549,253.441428 L1665.44153,253.441428 L1665.44153,246.653528 Z M1716.68848,246.175223 L1712.97513,246.175223 L1712.97513,252.961775 L1716.68848,252.961775 L1716.68848,246.175223 Z M1729.40014,246.175223 L1725.68948,246.175223 L1725.68948,252.961775 L1729.40014,252.961775 L1729.40014,246.175223 Z M561.129875,245.711738 L557.417871,245.711738 L557.417871,252.49829 L561.129875,252.49829 L561.129875,245.711738 Z M536.930414,245.711738 L533.217063,245.711738 L533.217063,252.49829 L536.930414,252.49829 L536.930414,245.711738 Z M812.178048,245.260379 L808.466044,245.260379 L808.466044,252.046931 L812.178048,252.046931 L812.178048,245.260379 Z M799.46639,245.260379 L795.754386,245.260379 L795.754386,252.046931 L799.46639,252.046931 L799.46639,245.260379 Z M1323.20935,245.595866 L1317.1952,245.595866 L1317.1952,249.870977 L1322.49499,249.870977 L1322.49499,249.868282 L1323.20935,249.868282 L1323.20935,245.595866 Z M1599.75363,244.93028 L1595.19517,244.93028 L1595.19517,248.605824 L1599.75363,248.605824 L1599.75363,244.93028 Z M1586.0742,244.93028 L1581.5117,244.93028 L1581.5117,248.605824 L1586.0742,248.605824 L1586.0742,244.93028 Z M881.565829,241.454143 L877.852478,241.454143 L877.852478,248.240695 L881.565829,248.240695 L881.565829,241.454143 Z M638.459241,241.027036 L634.74589,241.027036 L634.74589,247.813588 L638.459241,247.813588 L638.459241,241.027036 Z M651.169551,241.027036 L647.457548,241.027036 L647.457548,247.813588 L651.169551,247.813588 L651.169551,241.027036 Z M284.016804,243.573509 L281.939754,243.573509 L281.939754,247.363577 L284.016804,247.363577 L284.016804,243.573509 Z M120.084802,242.04293 L117.216558,242.04293 L117.216558,247.29082 L120.084802,247.29082 L120.084802,242.04293 Z M752.008274,242.94969 L746.841931,242.94969 L746.841931,247.112971 L752.008274,247.112971 L752.008274,242.94969 Z M720.266195,242.94969 L715.098504,242.94969 L715.098504,247.112971 L720.266195,247.112971 L720.266195,242.94969 Z M735.811053,242.94969 L730.643361,242.94969 L730.643361,247.112971 L735.811053,247.112971 L735.811053,242.94969 Z M1162.42595,240.597234 L1159.2113,240.597234 L1159.2113,246.472985 L1162.42595,246.472985 L1162.42595,240.597234 Z M241.242499,239.58134 L238.228686,239.58134 L238.228686,245.979858 L241.242499,245.979858 L241.242499,239.58134 Z M250.279894,239.58134 L247.267429,239.58134 L247.267429,245.979858 L250.279894,245.979858 L250.279894,239.58134 Z M1395.56916,241.583487 L1393.67272,241.583487 L1393.67272,245.607992 L1395.56916,245.607992 L1395.56916,241.583487 Z M1376.4363,241.583487 L1374.53987,241.583487 L1374.53987,245.607992 L1376.4363,245.607992 L1376.4363,241.583487 Z M1402.32598,241.583487 L1400.43224,241.583487 L1400.43224,245.607992 L1402.32598,245.607992 L1402.32598,241.583487 Z M1521.31362,238.930574 L1517.75123,238.930574 L1517.75123,245.44227 L1521.31362,245.44227 L1521.31362,238.930574 Z M1554.32673,239.97611 L1552.37369,239.97611 L1552.37369,243.543867 L1554.32673,243.543867 L1554.32673,239.97611 Z M1203.65021,237.618265 L1200.43557,237.618265 L1200.43557,243.492668 L1203.65021,243.492668 L1203.65021,237.618265 Z M1007.23077,237.033519 L1003.71285,237.033519 L1003.71285,243.465721 L1007.23077,243.465721 L1007.23077,237.033519 Z M1030.74551,237.033519 L1027.2276,237.033519 L1027.2276,243.465721 L1030.74551,243.465721 L1030.74551,237.033519 Z M1091.8197,236.086339 L1089.01616,236.086339 L1089.01616,242.038888 L1091.8197,242.038888 L1091.8197,236.086339 Z M1100.2263,236.086339 L1097.42275,236.086339 L1097.42275,242.038888 L1100.2263,242.038888 L1100.2263,236.086339 Z M1613.47483,237.902554 L1608.91502,237.902554 L1608.91502,241.578098 L1613.47483,241.578098 L1613.47483,237.902554 Z M1586.0742,237.902554 L1581.5117,237.902554 L1581.5117,241.578098 L1586.0742,241.578098 L1586.0742,237.902554 Z M1431.26451,232.975331 L1427.55116,232.975331 L1427.55116,239.763231 L1431.26451,239.763231 L1431.26451,232.975331 Z M1455.46667,232.975331 L1451.75466,232.975331 L1451.75466,239.763231 L1455.46667,239.763231 L1455.46667,232.975331 Z M283.991195,235.622854 L281.912796,235.622854 L281.912796,239.416964 L283.991195,239.416964 L283.991195,235.622854 Z M735.811053,234.988257 L730.643361,234.988257 L730.643361,239.151538 L735.811053,239.151538 L735.811053,234.988257 Z M704.764469,234.988257 L699.596777,234.988257 L699.596777,239.151538 L704.764469,239.151538 L704.764469,234.988257 Z M1678.1505,231.84626 L1674.43445,231.84626 L1674.43445,238.632812 L1678.1505,238.632812 L1678.1505,231.84626 Z M1665.44153,231.84626 L1661.72549,231.84626 L1661.72549,238.632812 L1665.44153,238.632812 L1665.44153,231.84626 Z M1653.33641,231.84626 L1649.62441,231.84626 L1649.62441,238.632812 L1653.33641,238.632812 L1653.33641,231.84626 Z M1729.40014,231.84626 L1725.68948,231.84626 L1725.68948,238.632812 L1729.40014,238.632812 L1729.40014,231.84626 Z M1704.5901,231.84626 L1700.8754,231.84626 L1700.8754,238.632812 L1704.5901,238.632812 L1704.5901,231.84626 Z M1376.4363,233.892869 L1374.53987,233.892869 L1374.53987,237.916027 L1376.4363,237.916027 L1376.4363,233.892869 Z M1382.11483,233.892869 L1380.22648,233.892869 L1380.22648,237.916027 L1382.11483,237.916027 L1382.11483,233.892869 Z M1408.00451,233.892869 L1406.11077,233.892869 L1406.11077,237.916027 L1408.00451,237.916027 L1408.00451,233.892869 Z M1395.56916,233.892869 L1393.67272,233.892869 L1393.67272,237.916027 L1395.56916,237.916027 L1395.56916,233.892869 Z M812.178048,230.928721 L808.466044,230.928721 L808.466044,237.715274 L812.178048,237.715274 L812.178048,230.928721 Z M787.365312,230.928721 L783.656004,230.928721 L783.656004,237.715274 L787.365312,237.715274 L787.365312,230.928721 Z M536.930414,230.901774 L533.217063,230.901774 L533.217063,237.689674 L536.930414,237.689674 L536.930414,230.901774 Z M561.129875,230.901774 L557.417871,230.901774 L557.417871,237.689674 L561.129875,237.689674 L561.129875,230.901774 Z M120.084802,230.593233 L117.216558,230.593233 L117.216558,235.842471 L120.084802,235.842471 L120.084802,230.593233 Z M139.267531,230.593233 L136.396591,230.593233 L136.396591,235.842471 L139.267531,235.842471 L139.267531,230.593233 Z M129.441639,230.593233 L126.569351,230.593233 L126.569351,235.842471 L129.441639,235.842471 L129.441639,230.593233 Z M1541.2862,232.192526 L1539.33045,232.192526 L1539.33045,235.760283 L1541.2862,235.760283 L1541.2862,232.192526 Z M1554.32673,232.192526 L1552.37369,232.192526 L1552.37369,235.760283 L1554.32673,235.760283 L1554.32673,232.192526 Z M241.242499,227.344796 L238.228686,227.344796 L238.228686,233.746009 L241.242499,233.746009 L241.242499,227.344796 Z M1162.42595,227.782682 L1159.2113,227.782682 L1159.2113,233.658432 L1162.42595,233.658432 L1162.42595,227.782682 Z M1274.72821,229.256672 L1269.42304,229.256672 L1269.42304,233.52774 L1274.72821,233.52774 L1274.72821,229.256672 Z M1306.58621,229.256672 L1301.28508,229.256672 L1301.28508,233.52774 L1306.58621,233.52774 L1306.58621,229.256672 Z M1323.20935,229.256672 L1317.90687,229.256672 L1317.90687,233.52774 L1323.20935,233.52774 L1323.20935,229.256672 Z M868.854171,226.29926 L865.140819,226.29926 L865.140819,233.085813 L868.854171,233.085813 L868.854171,226.29926 Z M881.565829,226.29926 L877.852478,226.29926 L877.852478,233.085813 L881.565829,233.085813 L881.565829,226.29926 Z M626.358163,226.21842 L622.647507,226.21842 L622.647507,233.004972 L626.358163,233.004972 L626.358163,226.21842 Z M638.459241,226.21842 L634.74589,226.21842 L634.74589,233.004972 L638.459241,233.004972 L638.459241,226.21842 Z M651.169551,226.21842 L647.457548,226.21842 L647.457548,233.004972 L651.169551,233.004972 L651.169551,226.21842 Z M1192.8606,226.650916 L1189.64596,226.650916 L1189.64596,232.523972 L1192.8606,232.523972 L1192.8606,226.650916 Z M752.008274,227.022782 L746.841931,227.022782 L746.841931,231.191452 L752.008274,231.191452 L752.008274,227.022782 Z M720.266195,227.022782 L715.098504,227.022782 L715.098504,231.191452 L720.266195,231.191452 L720.266195,227.022782 Z M283.991195,227.348838 L281.912796,227.348838 L281.912796,231.138906 L283.991195,231.138906 L283.991195,227.348838 Z M1091.8197,224.706704 L1089.01616,224.706704 L1089.01616,230.6606 L1091.8197,230.6606 L1091.8197,224.706704 Z M1382.11483,226.202251 L1380.22648,226.202251 L1380.22648,230.225409 L1382.11483,230.225409 L1382.11483,226.202251 Z M1402.42572,226.367974 L1400.40798,226.367974 L1400.40798,230.059686 L1402.42572,230.059686 L1402.42572,226.367974 Z M1030.74551,222.999624 L1027.2276,222.999624 L1027.2276,229.431826 L1030.74551,229.431826 L1030.74551,222.999624 Z M1018.6997,222.999624 L1015.18179,222.999624 L1015.18179,229.431826 L1018.6997,229.431826 L1018.6997,222.999624 Z M1007.23077,222.999624 L1003.71285,222.999624 L1003.71285,229.431826 L1007.23077,229.431826 L1007.23077,222.999624 Z M1554.32673,224.4049 L1552.37369,224.4049 L1552.37369,227.972657 L1554.32673,227.972657 L1554.32673,224.4049 Z M1547.6454,224.4049 L1545.68965,224.4049 L1545.68965,227.972657 L1547.6454,227.972657 L1547.6454,224.4049 Z M1541.2862,224.4049 L1539.33045,224.4049 L1539.33045,227.972657 L1541.2862,227.972657 L1541.2862,224.4049 Z M1290.63564,221.086401 L1285.33317,221.086401 L1285.33317,225.360164 L1290.63564,225.360164 L1290.63564,221.086401 Z M1274.72821,221.086401 L1269.42304,221.086401 L1269.42304,225.360164 L1274.72821,225.360164 L1274.72821,221.086401 Z M1323.20935,221.086401 L1317.90687,221.086401 L1317.90687,225.360164 L1323.20935,225.360164 L1323.20935,221.086401 Z M139.267531,219.146231 L136.396591,219.146231 L136.396591,224.394121 L139.267531,224.394121 L139.267531,219.146231 Z M129.441639,219.146231 L126.569351,219.146231 L126.569351,224.394121 L129.441639,224.394121 L129.441639,219.146231 Z M1729.40014,217.036296 L1725.68948,217.036296 L1725.68948,223.822849 L1729.40014,223.822849 L1729.40014,217.036296 Z M1653.33641,217.036296 L1649.62441,217.036296 L1649.62441,223.822849 L1653.33641,223.822849 L1653.33641,217.036296 Z M1678.1505,217.036296 L1674.43445,217.036296 L1674.43445,223.822849 L1678.1505,223.822849 L1678.1505,217.036296 Z M1716.68848,217.036296 L1712.97513,217.036296 L1712.97513,223.822849 L1716.68848,223.822849 L1716.68848,217.036296 Z M1395.56916,219.221682 L1393.67272,219.221682 L1393.67272,223.246187 L1395.56916,223.246187 L1395.56916,219.221682 Z M704.764469,219.064043 L699.596777,219.064043 L699.596777,223.227324 L704.764469,223.227324 L704.764469,219.064043 Z M752.008274,219.064043 L746.841931,219.064043 L746.841931,223.227324 L752.008274,223.227324 L752.008274,219.064043 Z M720.266195,219.064043 L715.098504,219.064043 L715.098504,223.227324 L720.266195,223.227324 L720.266195,219.064043 Z M799.46639,216.120105 L795.754386,216.120105 L795.754386,222.908005 L799.46639,222.908005 L799.46639,216.120105 Z M812.178048,216.120105 L808.466044,216.120105 L808.466044,222.908005 L812.178048,222.908005 L812.178048,216.120105 Z M283.991195,219.074822 L281.912796,219.074822 L281.912796,222.86489 L283.991195,222.86489 L283.991195,219.074822 Z M1376.4363,218.511634 L1374.53987,218.511634 L1374.53987,222.534791 L1376.4363,222.534791 L1376.4363,218.511634 Z M250.279894,215.108252 L247.267429,215.108252 L247.267429,221.508118 L250.279894,221.508118 L250.279894,215.108252 Z M241.242499,215.108252 L238.228686,215.108252 L238.228686,221.508118 L241.242499,221.508118 L241.242499,215.108252 Z M1547.6454,216.621315 L1545.68965,216.621315 L1545.68965,220.186378 L1547.6454,220.186378 L1547.6454,216.621315 Z M1203.60708,212.49037 L1200.39514,212.49037 L1200.39514,218.366121 L1203.60708,218.366121 L1203.60708,212.49037 Z M868.854171,211.490644 L865.140819,211.490644 L865.140819,218.277196 L868.854171,218.277196 L868.854171,211.490644 Z M893.664211,211.490644 L889.953556,211.490644 L889.953556,218.277196 L893.664211,218.277196 L893.664211,211.490644 Z M651.169551,211.409803 L647.457548,211.409803 L647.457548,218.196356 L651.169551,218.196356 L651.169551,211.409803 Z M626.358163,211.409803 L622.647507,211.409803 L622.647507,218.196356 L626.358163,218.196356 L626.358163,211.409803 Z M1290.63564,212.913435 L1285.33317,212.913435 L1285.33317,217.188546 L1290.63564,217.188546 L1290.63564,212.913435 Z M1323.20935,212.913435 L1317.90687,212.913435 L1317.90687,217.188546 L1323.20935,217.188546 L1323.20935,212.913435 Z M1171.2989,210.117704 L1168.28779,210.117704 L1168.28779,216.51757 L1171.2989,216.51757 L1171.2989,210.117704 Z M1606.70993,212.78409 L1602.15147,212.78409 L1602.15147,216.459635 L1606.70993,216.459635 L1606.70993,212.78409 Z M1018.6997,208.963034 L1015.18179,208.963034 L1015.18179,215.396583 L1018.6997,215.396583 L1018.6997,208.963034 Z M735.811053,211.099915 L730.643361,211.099915 L730.643361,215.268586 L735.811053,215.268586 L735.811053,211.099915 Z M704.764469,211.099915 L699.596777,211.099915 L699.596777,215.268586 L704.764469,215.268586 L704.764469,211.099915 Z M1382.11483,210.821016 L1380.22648,210.821016 L1380.22648,214.842826 L1382.11483,214.842826 L1382.11483,210.821016 Z M1402.42572,209.658261 L1400.40798,209.658261 L1400.40798,213.351321 L1402.42572,213.351321 L1402.42572,209.658261 Z M1541.2862,209.514096 L1539.33045,209.514096 L1539.33045,213.0832 L1541.2862,213.0832 L1541.2862,209.514096 Z M120.084802,207.695187 L117.216558,207.695187 L117.216558,212.943077 L120.084802,212.943077 L120.084802,207.695187 Z M139.267531,207.695187 L136.396591,207.695187 L136.396591,212.943077 L139.267531,212.943077 L139.267531,207.695187 Z M129.441639,207.695187 L126.569351,207.695187 L126.569351,212.943077 L129.441639,212.943077 L129.441639,207.695187 Z M1442.81566,203.359446 L1439.10231,203.359446 L1439.10231,210.145998 L1442.81566,210.145998 L1442.81566,203.359446 Z M1455.46667,203.359446 L1451.75466,203.359446 L1451.75466,210.145998 L1455.46667,210.145998 L1455.46667,203.359446 Z M1431.26451,203.359446 L1427.55116,203.359446 L1427.55116,210.145998 L1431.26451,210.145998 L1431.26451,203.359446 Z M250.279894,202.875751 L247.267429,202.875751 L247.267429,209.275617 L250.279894,209.275617 L250.279894,202.875751 Z M241.242499,202.875751 L238.228686,202.875751 L238.228686,209.275617 L241.242499,209.275617 L241.242499,202.875751 Z M1306.58621,204.745859 L1301.28508,204.745859 L1301.28508,209.019622 L1306.58621,209.019622 L1306.58621,204.745859 Z M1274.72821,204.745859 L1269.42304,204.745859 L1269.42304,209.019622 L1274.72821,209.019622 L1274.72821,204.745859 Z M1729.40014,202.224985 L1725.68948,202.224985 L1725.68948,209.014233 L1729.40014,209.014233 L1729.40014,202.224985 Z M1665.44153,202.224985 L1661.72549,202.224985 L1661.72549,209.014233 L1665.44153,209.014233 L1665.44153,202.224985 Z M1678.1505,202.224985 L1674.43445,202.224985 L1674.43445,209.014233 L1678.1505,209.014233 L1678.1505,202.224985 Z M1716.68848,202.224985 L1712.97513,202.224985 L1712.97513,209.014233 L1716.68848,209.014233 L1716.68848,202.224985 Z M799.46639,201.311489 L795.754386,201.311489 L795.754386,208.098041 L799.46639,208.098041 L799.46639,201.311489 Z M812.178048,201.311489 L808.466044,201.311489 L808.466044,208.098041 L812.178048,208.098041 L812.178048,201.311489 Z M561.129875,201.285889 L557.417871,201.285889 L557.417871,208.072442 L561.129875,208.072442 L561.129875,201.285889 Z M548.481566,201.285889 L544.769562,201.285889 L544.769562,208.072442 L548.481566,208.072442 L548.481566,201.285889 Z M536.930414,201.285889 L533.217063,201.285889 L533.217063,208.072442 L536.930414,208.072442 L536.930414,201.285889 Z M1541.2862,201.730511 L1539.33045,201.730511 L1539.33045,205.295574 L1541.2862,205.295574 L1541.2862,201.730511 Z M1395.67025,200.759079 L1393.64981,200.759079 L1393.64981,204.450791 L1395.67025,204.450791 L1395.67025,200.759079 Z M1162.26016,197.88116 L1159.24904,197.88116 L1159.24904,204.281026 L1162.26016,204.281026 L1162.26016,197.88116 Z M1376.53604,200.046336 L1374.5183,200.046336 L1374.5183,203.739396 L1376.53604,203.739396 L1376.53604,200.046336 Z M893.664211,196.682028 L889.953556,196.682028 L889.953556,203.469928 L893.664211,203.469928 L893.664211,196.682028 Z M868.854171,196.682028 L865.140819,196.682028 L865.140819,203.469928 L868.854171,203.469928 L868.854171,196.682028 Z M881.565829,196.682028 L877.852478,196.682028 L877.852478,203.469928 L881.565829,203.469928 L881.565829,196.682028 Z M638.459241,196.601187 L634.74589,196.601187 L634.74589,203.38774 L638.459241,203.38774 L638.459241,196.601187 Z M1192.70021,196.750742 L1189.68909,196.750742 L1189.68909,203.150608 L1192.70021,203.150608 L1192.70021,196.750742 Z M1606.70993,198.645102 L1602.15147,198.645102 L1602.15147,202.317952 L1606.70993,202.317952 L1606.70993,198.645102 Z M139.267531,196.249532 L136.396591,196.249532 L136.396591,201.497422 L139.267531,201.497422 L139.267531,196.249532 Z M120.084802,196.249532 L117.216558,196.249532 L117.216558,201.497422 L120.084802,201.497422 L120.084802,196.249532 Z M1007.23077,194.926443 L1003.71285,194.926443 L1003.71285,201.362688 L1007.23077,201.362688 L1007.23077,194.926443 Z M1274.72821,196.575588 L1269.42304,196.575588 L1269.42304,200.846656 L1274.72821,200.846656 L1274.72821,196.575588 Z M1290.63564,196.575588 L1285.33317,196.575588 L1285.33317,200.846656 L1290.63564,200.846656 L1290.63564,196.575588 Z M1323.20935,196.575588 L1317.1952,196.575588 L1317.1952,200.846656 L1323.20935,200.846656 L1323.20935,196.575588 Z M1402.44998,193.863392 L1400.43224,193.863392 L1400.43224,197.555104 L1402.44998,197.555104 L1402.44998,193.863392 Z M241.242499,190.639207 L238.228686,190.639207 L238.228686,197.039073 L241.242499,197.039073 L241.242499,190.639207 Z M1442.81566,188.553524 L1439.10231,188.553524 L1439.10231,195.340077 L1442.81566,195.340077 L1442.81566,188.553524 Z M1455.46667,188.553524 L1451.75466,188.553524 L1451.75466,195.340077 L1455.46667,195.340077 L1455.46667,188.553524 Z M548.481566,186.477273 L544.769562,186.477273 L544.769562,193.265173 L548.481566,193.265173 L548.481566,186.477273 Z M561.129875,186.477273 L557.417871,186.477273 L557.417871,193.265173 L561.129875,193.265173 L561.129875,186.477273 Z M1322.49633,188.402622 L1317.1952,188.402622 L1317.1952,192.680427 L1322.49633,192.680427 L1322.49633,188.402622 Z M1290.63564,188.402622 L1285.33047,188.402622 L1285.33047,192.675038 L1290.63564,192.675038 L1290.63564,188.402622 Z M1339.11813,188.402622 L1333.81565,188.402622 L1333.81565,192.675038 L1339.11813,192.675038 L1339.11813,188.402622 Z M1306.54577,188.402622 L1301.24329,188.402622 L1301.24329,192.675038 L1306.54577,192.675038 L1306.54577,188.402622 Z M1171.2989,185.644617 L1168.28779,185.644617 L1168.28779,192.044483 L1171.2989,192.044483 L1171.2989,185.644617 Z M1203.60708,185.908695 L1200.39514,185.908695 L1200.39514,191.781751 L1203.60708,191.781751 L1203.60708,185.908695 Z M881.565829,181.874759 L877.852478,181.874759 L877.852478,188.661312 L881.565829,188.661312 L881.565829,181.874759 Z M651.169551,181.792571 L647.457548,181.792571 L647.457548,188.579124 L651.169551,188.579124 L651.169551,181.792571 Z M626.358163,181.792571 L622.647507,181.792571 L622.647507,188.579124 L626.358163,188.579124 L626.358163,181.792571 Z M638.459241,181.792571 L634.74589,181.792571 L634.74589,188.579124 L638.459241,188.579124 L638.459241,181.792571 Z M1606.70993,184.590997 L1602.15147,184.590997 L1602.15147,188.263846 L1606.70993,188.263846 L1606.70993,184.590997 Z M1007.23077,180.893895 L1003.71285,180.893895 L1003.71285,187.323403 L1007.23077,187.323403 L1007.23077,180.893895 Z M1018.6997,180.893895 L1015.18179,180.893895 L1015.18179,187.323403 L1018.6997,187.323403 L1018.6997,180.893895 Z M1030.74551,180.893895 L1027.2276,180.893895 L1027.2276,187.323403 L1030.74551,187.323403 L1030.74551,180.893895 Z M1339.11813,180.232351 L1333.81565,180.232351 L1333.81565,184.508809 L1339.11813,184.508809 L1339.11813,180.232351 Z M1306.54577,180.232351 L1301.24329,180.232351 L1301.24329,184.508809 L1306.54577,184.508809 L1306.54577,180.232351 Z M1395.67025,180.20271 L1393.77651,180.20271 L1393.77651,184.220478 L1395.67025,184.220478 L1395.67025,180.20271 Z M1606.70993,177.56327 L1602.15147,177.56327 L1602.15147,181.240162 L1606.70993,181.240162 L1606.70993,177.56327 Z M1431.26451,173.744908 L1427.55116,173.744908 L1427.55116,180.531461 L1431.26451,180.531461 L1431.26451,173.744908 Z M1192.69886,173.408073 L1189.68774,173.408073 L1189.68774,179.807939 L1192.69886,179.807939 L1192.69886,173.408073 Z M1212.48408,173.408073 L1209.47297,173.408073 L1209.47297,179.807939 L1212.48408,179.807939 L1212.48408,173.408073 Z M1162.25881,173.408073 L1159.2477,173.408073 L1159.2477,179.807939 L1162.25881,179.807939 L1162.25881,173.408073 Z M1171.2989,173.408073 L1168.28779,173.408073 L1168.28779,179.807939 L1171.2989,179.807939 L1171.2989,173.408073 Z M536.930414,171.668657 L533.217063,171.668657 L533.217063,178.455209 L536.930414,178.455209 L536.930414,171.668657 Z M1322.49633,172.060733 L1317.1952,172.060733 L1317.1952,176.337191 L1322.49633,176.337191 L1322.49633,172.060733 Z M1290.63564,172.060733 L1285.33047,172.060733 L1285.33047,176.337191 L1290.63564,176.337191 L1290.63564,172.060733 Z M1383.23356,171.271192 L1381.33981,171.271192 L1381.33981,175.294349 L1383.23356,175.294349 L1383.23356,171.271192 Z M1389.98903,171.271192 L1388.09663,171.271192 L1388.09663,175.294349 L1389.98903,175.294349 L1389.98903,171.271192 Z M868.854171,167.064795 L865.140819,167.064795 L865.140819,173.851348 L868.854171,173.851348 L868.854171,167.064795 Z M893.664211,167.064795 L889.953556,167.064795 L889.953556,173.851348 L893.664211,173.851348 L893.664211,167.064795 Z M651.169551,166.983955 L647.457548,166.983955 L647.457548,173.770508 L651.169551,173.770508 L651.169551,166.983955 Z M626.358163,166.983955 L622.647507,166.983955 L622.647507,173.770508 L626.358163,173.770508 L626.358163,166.983955 Z M1030.74551,166.86 L1027.2276,166.86 L1027.2276,173.289507 L1030.74551,173.289507 L1030.74551,166.86 Z M1018.6997,166.86 L1015.18179,166.86 L1015.18179,173.289507 L1018.6997,173.289507 L1018.6997,166.86 Z M1290.63564,163.894504 L1285.33047,163.894504 L1285.33047,168.16692 L1290.63564,168.16692 L1290.63564,163.894504 Z M1306.54577,163.894504 L1301.24329,163.894504 L1301.24329,168.16692 L1306.54577,168.16692 L1306.54577,163.894504 Z M1274.72821,163.894504 L1269.42304,163.894504 L1269.42304,168.16692 L1274.72821,168.16692 L1274.72821,163.894504 Z M1322.49633,163.894504 L1317.1952,163.894504 L1317.1952,168.16692 L1322.49633,168.16692 L1322.49633,163.894504 Z M1339.11813,163.894504 L1333.81565,163.894504 L1333.81565,168.16692 L1339.11813,168.16692 L1339.11813,163.894504 Z M945.314168,160.915535 L941.603512,160.915535 L941.603512,167.702087 L945.314168,167.702087 L945.314168,160.915535 Z M933.21309,160.915535 L929.502434,160.915535 L929.502434,167.702087 L933.21309,167.702087 L933.21309,160.915535 Z M1395.67025,163.580574 L1393.77651,163.580574 L1393.77651,167.603732 L1395.67025,167.603732 L1395.67025,163.580574 Z M1383.23356,163.580574 L1381.33981,163.580574 L1381.33981,167.603732 L1383.23356,167.603732 L1383.23356,163.580574 Z M1162.25881,161.178266 L1159.2477,161.178266 L1159.2477,167.576785 L1162.25881,167.576785 L1162.25881,161.178266 Z M1203.44804,161.178266 L1200.43557,161.178266 L1200.43557,167.576785 L1203.44804,167.576785 L1203.44804,161.178266 Z M1192.69886,161.178266 L1189.68774,161.178266 L1189.68774,167.576785 L1192.69886,167.576785 L1192.69886,161.178266 Z M1431.26451,158.936292 L1427.55116,158.936292 L1427.55116,165.722845 L1431.26451,165.722845 L1431.26451,158.936292 Z M1442.81566,158.936292 L1439.10231,158.936292 L1439.10231,165.722845 L1442.81566,165.722845 L1442.81566,158.936292 Z M1455.46667,158.936292 L1451.75466,158.936292 L1451.75466,165.722845 L1455.46667,165.722845 L1455.46667,158.936292 Z M536.930414,156.860041 L533.217063,156.860041 L533.217063,163.646593 L536.930414,163.646593 L536.930414,156.860041 Z M548.481566,156.860041 L544.769562,156.860041 L544.769562,163.646593 L548.481566,163.646593 L548.481566,156.860041 Z M561.129875,156.860041 L557.417871,156.860041 L557.417871,163.646593 L561.129875,163.646593 L561.129875,156.860041 Z M1290.63564,155.722886 L1285.33047,155.722886 L1285.33047,159.995301 L1290.63564,159.995301 L1290.63564,155.722886 Z M1322.49633,155.722886 L1317.1952,155.722886 L1317.1952,159.995301 L1322.49633,159.995301 L1322.49633,155.722886 Z M1018.6997,152.820715 L1015.18179,152.820715 L1015.18179,159.255612 L1018.6997,159.255612 L1018.6997,152.820715 Z M1007.23077,152.820715 L1003.71285,152.820715 L1003.71285,159.255612 L1007.23077,159.255612 L1007.23077,152.820715 Z M1030.74551,152.820715 L1027.2276,152.820715 L1027.2276,159.255612 L1030.74551,159.255612 L1030.74551,152.820715 Z M881.565829,152.256179 L877.852478,152.256179 L877.852478,159.042732 L881.565829,159.042732 L881.565829,152.256179 Z M893.664211,152.256179 L889.953556,152.256179 L889.953556,159.042732 L893.664211,159.042732 L893.664211,152.256179 Z M868.854171,152.256179 L865.140819,152.256179 L865.140819,159.042732 L868.854171,159.042732 L868.854171,152.256179 Z M651.169551,152.176686 L647.457548,152.176686 L647.457548,158.963239 L651.169551,158.963239 L651.169551,152.176686 Z M638.459241,152.176686 L634.74589,152.176686 L634.74589,158.963239 L638.459241,158.963239 L638.459241,152.176686 Z M1212.48408,146.973258 L1209.47297,146.973258 L1209.47297,153.373124 L1212.48408,153.373124 L1212.48408,146.973258 Z M1183.7046,147.231948 L1180.48995,147.231948 L1180.48995,153.110393 L1183.7046,153.110393 L1183.7046,147.231948 Z M945.314168,146.106919 L941.603512,146.106919 L941.603512,152.893471 L945.314168,152.893471 L945.314168,146.106919 Z M1604.03308,149.180202 L1599.47058,149.180202 L1599.47058,152.851704 L1604.03308,152.851704 L1604.03308,149.180202 Z M1339.11813,147.552615 L1333.81565,147.552615 L1333.81565,151.823683 L1339.11813,151.823683 L1339.11813,147.552615 Z M1306.54577,147.552615 L1301.24329,147.552615 L1301.24329,151.823683 L1306.54577,151.823683 L1306.54577,147.552615 Z M1455.46667,144.127676 L1451.75466,144.127676 L1451.75466,150.914228 L1455.46667,150.914228 L1455.46667,144.127676 Z M1431.26451,144.127676 L1427.55116,144.127676 L1427.55116,150.914228 L1431.26451,150.914228 L1431.26451,144.127676 Z M536.930414,142.056814 L533.217063,142.056814 L533.217063,148.843367 L536.930414,148.843367 L536.930414,142.056814 Z M561.129875,142.056814 L557.417871,142.056814 L557.417871,148.843367 L561.129875,148.843367 L561.129875,142.056814 Z M1030.74551,138.788167 L1027.2276,138.788167 L1027.2276,145.217674 L1030.74551,145.217674 L1030.74551,138.788167 Z M1007.23077,138.788167 L1003.71285,138.788167 L1003.71285,145.217674 L1007.23077,145.217674 L1007.23077,138.788167 Z M868.854171,137.448911 L865.140819,137.448911 L865.140819,144.235463 L868.854171,144.235463 L868.854171,137.448911 Z M881.565829,137.448911 L877.852478,137.448911 L877.852478,144.235463 L881.565829,144.235463 L881.565829,137.448911 Z M1339.11813,139.380996 L1333.81565,139.380996 L1333.81565,143.657454 L1339.11813,143.657454 L1339.11813,139.380996 Z M1290.63564,139.380996 L1285.33047,139.380996 L1285.33047,143.657454 L1290.63564,143.657454 L1290.63564,139.380996 Z M1306.54577,139.380996 L1301.24329,139.380996 L1301.24329,143.657454 L1306.54577,143.657454 L1306.54577,139.380996 Z M1322.49633,139.380996 L1317.1952,139.380996 L1317.1952,143.652065 L1322.49633,143.652065 L1322.49633,139.380996 Z M1192.90104,135.316071 L1189.68774,135.316071 L1189.68774,141.193169 L1192.90104,141.193169 L1192.90104,135.316071 Z M1203.44804,134.736715 L1200.43557,134.736715 L1200.43557,141.136581 L1203.44804,141.136581 L1203.44804,134.736715 Z M1212.48408,134.736715 L1209.47297,134.736715 L1209.47297,141.136581 L1212.48408,141.136581 L1212.48408,134.736715 Z M1162.46234,134.200473 L1159.2477,134.200473 L1159.2477,140.073529 L1162.46234,140.073529 L1162.46234,134.200473 Z M1604.03308,135.124749 L1599.47058,135.124749 L1599.47058,138.797598 L1604.03308,138.797598 L1604.03308,135.124749 Z M933.21309,131.300997 L929.502434,131.300997 L929.502434,138.088897 L933.21309,138.088897 L933.21309,131.300997 Z M1442.81566,129.31906 L1439.10231,129.31906 L1439.10231,136.10696 L1442.81566,136.10696 L1442.81566,129.31906 Z M1455.46667,129.31906 L1451.75466,129.31906 L1451.75466,136.10696 L1455.46667,136.10696 L1455.46667,129.31906 Z M1306.58621,131.210725 L1301.28508,131.210725 L1301.28508,135.487183 L1306.58621,135.487183 L1306.58621,131.210725 Z M1323.20935,131.210725 L1317.1952,131.210725 L1317.1952,135.487183 L1323.20935,135.487183 L1323.20935,131.210725 Z M1274.72821,131.210725 L1269.42304,131.210725 L1269.42304,135.487183 L1274.72821,135.487183 L1274.72821,131.210725 Z M1290.63564,131.210725 L1285.33317,131.210725 L1285.33317,135.487183 L1290.63564,135.487183 L1290.63564,131.210725 Z M561.129875,127.248198 L557.417871,127.248198 L557.417871,134.036098 L561.129875,134.036098 L561.129875,127.248198 Z M548.481566,127.248198 L544.769562,127.248198 L544.769562,134.036098 L548.481566,134.036098 L548.481566,127.248198 Z M1604.03308,128.095675 L1599.47058,128.095675 L1599.47058,131.772566 L1604.03308,131.772566 L1604.03308,128.095675 Z M893.664211,122.638947 L889.953556,122.638947 L889.953556,129.426847 L893.664211,129.426847 L893.664211,122.638947 Z M868.854171,122.638947 L865.140819,122.638947 L865.140819,129.426847 L868.854171,129.426847 L868.854171,122.638947 Z M881.565829,122.638947 L877.852478,122.638947 L877.852478,129.426847 L881.565829,129.426847 L881.565829,122.638947 Z M1203.44804,122.501518 L1200.43557,122.501518 L1200.43557,128.901384 L1203.44804,128.901384 L1203.44804,122.501518 Z M1306.58621,123.044496 L1301.28508,123.044496 L1301.28508,127.315565 L1306.58621,127.315565 L1306.58621,123.044496 Z M1274.72821,123.044496 L1269.42304,123.044496 L1269.42304,127.315565 L1274.72821,127.315565 L1274.72821,123.044496 Z M1172.9352,121.385921 L1169.72056,121.385921 L1169.72056,127.257629 L1172.9352,127.257629 L1172.9352,121.385921 Z M1162.46234,121.385921 L1159.2477,121.385921 L1159.2477,127.257629 L1162.46234,127.257629 L1162.46234,121.385921 Z M933.21309,116.492381 L929.502434,116.492381 L929.502434,123.278934 L933.21309,123.278934 L933.21309,116.492381 Z M945.314168,116.492381 L941.603512,116.492381 L941.603512,123.278934 L945.314168,123.278934 L945.314168,116.492381 Z M1290.63564,114.872878 L1285.33317,114.872878 L1285.33317,119.143947 L1290.63564,119.143947 L1290.63564,114.872878 Z M1323.20935,114.872878 L1317.90687,114.872878 L1317.90687,119.143947 L1323.20935,119.143947 L1323.20935,114.872878 Z M893.664211,107.830331 L889.953556,107.830331 L889.953556,114.618231 L893.664211,114.618231 L893.664211,107.830331 Z M868.854171,107.830331 L865.140819,107.830331 L865.140819,114.618231 L868.854171,114.618231 L868.854171,107.830331 Z M1172.9352,108.565979 L1169.72056,108.565979 L1169.72056,114.444424 L1172.9352,114.444424 L1172.9352,108.565979 Z M1479.15125,105.906329 L1475.94199,105.906329 L1475.94199,111.778038 L1479.15125,111.778038 L1479.15125,105.906329 Z M1274.72821,106.702607 L1269.42304,106.702607 L1269.42304,110.973676 L1274.72821,110.973676 L1274.72821,106.702607 Z M1290.63564,106.702607 L1285.33317,106.702607 L1285.33317,110.973676 L1290.63564,110.973676 L1290.63564,106.702607 Z M1323.20935,106.702607 L1317.90687,106.702607 L1317.90687,110.973676 L1323.20935,110.973676 L1323.20935,106.702607 Z M1192.90104,97.988011 L1189.68774,97.988011 L1189.68774,103.859719 L1192.90104,103.859719 L1192.90104,97.988011 Z M1203.65021,97.372276 L1200.43557,97.372276 L1200.43557,103.250722 L1203.65021,103.250722 L1203.65021,97.372276 Z M1274.72821,98.529641 L1269.42304,98.529641 L1269.42304,102.806099 L1274.72821,102.806099 L1274.72821,98.529641 Z M1306.58621,98.529641 L1301.28508,98.529641 L1301.28508,102.806099 L1306.58621,102.806099 L1306.58621,98.529641 Z M1162.46234,96.872413 L1159.2477,96.872413 L1159.2477,102.745469 L1162.46234,102.745469 L1162.46234,96.872413 Z M881.565829,93.025757 L877.852478,93.025757 L877.852478,99.812309 L881.565829,99.812309 L881.565829,93.025757 Z M1489.62276,93.08504 L1486.41351,93.08504 L1486.41351,98.963485 L1489.62276,98.963485 L1489.62276,93.08504 Z M1479.15125,93.08504 L1475.94199,93.08504 L1475.94199,98.963485 L1479.15125,98.963485 L1479.15125,93.08504 Z M1192.90104,85.173458 L1189.68774,85.173458 L1189.68774,91.045167 L1192.90104,91.045167 L1192.90104,85.173458 Z M1214.12038,84.559071 L1210.90844,84.559071 L1210.90844,90.436169 L1214.12038,90.436169 L1214.12038,84.559071 Z M1203.65021,84.559071 L1200.43557,84.559071 L1200.43557,90.436169 L1203.65021,90.436169 L1203.65021,84.559071 Z M1162.46234,84.051124 L1159.2477,84.051124 L1159.2477,89.929569 L1162.46234,89.929569 L1162.46234,84.051124 Z M1489.62276,80.270487 L1486.41351,80.270487 L1486.41351,86.143543 L1489.62276,86.143543 L1489.62276,80.270487 Z M1214.12038,71.743171 L1210.90844,71.743171 L1210.90844,77.616227 L1214.12038,77.616227 L1214.12038,71.743171 Z M1162.42595,71.743171 L1159.2113,71.743171 L1159.2113,77.616227 L1162.42595,77.616227 L1162.42595,71.743171 Z M1203.65021,60.044216 L1200.43557,60.044216 L1200.43557,65.921314 L1203.65021,65.921314 L1203.65021,60.044216 Z M1192.8606,60.044216 L1189.64596,60.044216 L1189.64596,65.921314 L1192.8606,65.921314 L1192.8606,60.044216 Z M1162.42595,58.928618 L1159.2113,58.928618 L1159.2113,64.801674 L1162.42595,64.801674 L1162.42595,58.928618 Z M1203.65021,47.229663 L1200.43557,47.229663 L1200.43557,53.102719 L1203.65021,53.102719 L1203.65021,47.229663 Z M1192.8606,47.229663 L1189.64596,47.229663 L1189.64596,53.102719 L1192.8606,53.102719 L1192.8606,47.229663 Z M1162.42595,46.108676 L1159.2113,46.108676 L1159.2113,51.985774 L1162.42595,51.985774 L1162.42595,46.108676 Z M1183.7046,35.366333 L1180.48995,35.366333 L1180.48995,41.243431 L1183.7046,41.243431 L1183.7046,35.366333 Z M1203.60708,22.101769 L1200.39514,22.101769 L1200.39514,27.980214 L1203.60708,27.980214 L1203.60708,22.101769 Z M1203.60708,9.285869 L1200.39514,9.285869 L1200.39514,15.164314 L1203.60708,15.164314 L1203.60708,9.285869 Z"></path>
  </g>
</svg>
